HIERARCHY
ROOT Root
{
  OFFSET 0.0 0.0 0.0
  CHANNELS 6 Xposition Yposition Zposition Zrotation Yrotation Xrotation
  JOINT Hips
  {
    OFFSET 0.0 100.0 0.0
    CHANNELS 6 Xposition Yposition Zposition Zrotation Yrotation Xrotation
    JOINT Spine1
    {
      OFFSET 5.003913 -0.037094 -0.013727
      CHANNELS 3 Zrotation Yrotation Xrotation
      JOINT Spine2
      {
        OFFSET 7.125363 -1e-06 0.0
        CHANNELS 3 Zrotation Yrotation Xrotation
        JOINT Chest
        {
          OFFSET 7.594027 1e-06 0.0
          CHANNELS 3 Zrotation Yrotation Xrotation
          JOINT Neck1
          {
            OFFSET 26.313086 -0.460272 -0.181672
            CHANNELS 3 Zrotation Yrotation Xrotation
            JOINT Neck2
            {
              OFFSET 8.045911 0.0 0.0
              CHANNELS 3 Zrotation Yrotation Xrotation
              JOINT Head
              {
                OFFSET 6.432774 0.0 0.0
                CHANNELS 3 Zrotation Yrotation Xrotation
                JOINT HeadEnd
                {
                  OFFSET 16.169773 0.06451 0.00362
                  CHANNELS 3 Zrotation Yrotation Xrotation
                }
                JOINT Jaw
                {
                  OFFSET 0.108741 3.12938 0.002639
                  CHANNELS 3 Zrotation Yrotation Xrotation
                }
                JOINT LeftEye
                {
                  OFFSET 4.45173 8.166359 3.206392
                  CHANNELS 3 Zrotation Yrotation Xrotation
                }
                JOINT RightEye
                {
                  OFFSET 4.436895 8.135758 -3.222429
                  CHANNELS 3 Zrotation Yrotation Xrotation
                }
              }
            }
          }
          JOINT LeftShoulder
          {
            OFFSET 23.218927 5.195579 1.621656
            CHANNELS 3 Zrotation Yrotation Xrotation
            JOINT LeftArm
            {
              OFFSET 15.902118 2e-06 -2e-06
              CHANNELS 3 Zrotation Yrotation Xrotation
              JOINT LeftForeArm
              {
                OFFSET 28.739307 0.0 -1e-06
                CHANNELS 3 Zrotation Yrotation Xrotation
                JOINT LeftHand
                {
                  OFFSET 27.093981 -4e-06 0.0
                  CHANNELS 3 Zrotation Yrotation Xrotation
                  JOINT LeftHandThumb1
                  {
                    OFFSET 2.276781 3.380274 0.83384
                    CHANNELS 3 Zrotation Yrotation Xrotation
                    JOINT LeftHandThumb2
                    {
                      OFFSET 4.705309 -1e-06 -1e-06
                      CHANNELS 3 Zrotation Yrotation Xrotation
                      JOINT LeftHandThumb3
                      {
                        OFFSET 2.798515 0.0 3e-06
                        CHANNELS 3 Zrotation Yrotation Xrotation
                        JOINT LeftHandThumbEnd
                        {
                          OFFSET 3.180793 4e-06 -4e-06
                          CHANNELS 3 Zrotation Yrotation Xrotation
                        }
                      }
                    }
                  }
                  JOINT LeftHandIndex1
                  {
                    OFFSET 3.247786 2.352677 0.137192
                    CHANNELS 3 Zrotation Yrotation Xrotation
                    JOINT LeftHandIndex2
                    {
                      OFFSET 6.367095 1e-06 0.0
                      CHANNELS 3 Zrotation Yrotation Xrotation
                      JOINT LeftHandIndex3
                      {
                        OFFSET 3.662364 0.0 0.0
                        CHANNELS 3 Zrotation Yrotation Xrotation
                        JOINT LeftHandIndex4
                        {
                          OFFSET 2.329242 4e-06 -4e-06
                          CHANNELS 3 Zrotation Yrotation Xrotation
                          JOINT LeftHandIndexEnd
                          {
                            OFFSET 2.767823 1e-06 0.0
                            CHANNELS 3 Zrotation Yrotation Xrotation
                          }
                        }
                      }
                    }
                  }
                  JOINT LeftHandMiddle1
                  {
                    OFFSET 3.163612 0.945023 -0.406112
                    CHANNELS 3 Zrotation Yrotation Xrotation
                    JOINT LeftHandMiddle2
                    {
                      OFFSET 6.276789 3e-06 0.0
                      CHANNELS 3 Zrotation Yrotation Xrotation
                      JOINT LeftHandMiddle3
                      {
                        OFFSET 4.35652 -1e-06 4e-06
                        CHANNELS 3 Zrotation Yrotation Xrotation
                        JOINT LeftHandMiddle4
                        {
                          OFFSET 2.996877 0.0 8e-06
                          CHANNELS 3 Zrotation Yrotation Xrotation
                          JOINT LeftHandMiddleEnd
                          {
                            OFFSET 2.323256 3e-06 -4e-06
                            CHANNELS 3 Zrotation Yrotation Xrotation
                          }
                        }
                      }
                    }
                  }
                  JOINT LeftHandRing1
                  {
                    OFFSET 2.882606 -0.309162 0.107445
                    CHANNELS 3 Zrotation Yrotation Xrotation
                    JOINT LeftHandRing2
                    {
                      OFFSET 6.033198 0.0 4e-06
                      CHANNELS 3 Zrotation Yrotation Xrotation
                      JOINT LeftHandRing3
                      {
                        OFFSET 4.350578 3e-06 0.0
                        CHANNELS 3 Zrotation Yrotation Xrotation
                        JOINT LeftHandRing4
                        {
                          OFFSET 2.651321 2e-06 -7e-06
                          CHANNELS 3 Zrotation Yrotation Xrotation
                          JOINT LeftHandRingEnd
                          {
                            OFFSET 1.937663 1e-06 -4e-06
                            CHANNELS 3 Zrotation Yrotation Xrotation
                          }
                        }
                      }
                    }
                  }
                  JOINT LeftHandPinky1
                  {
                    OFFSET 2.865315 -1.525436 0.575687
                    CHANNELS 3 Zrotation Yrotation Xrotation
                    JOINT LeftHandPinky2
                    {
                      OFFSET 5.54936 1e-06 -8e-06
                      CHANNELS 3 Zrotation Yrotation Xrotation
                      JOINT LeftHandPinky3
                      {
                        OFFSET 3.070974 0.0 -4e-06
                        CHANNELS 3 Zrotation Yrotation Xrotation
                        JOINT LeftHandPinky4
                        {
                          OFFSET 1.549672 1e-06 0.0
                          CHANNELS 3 Zrotation Yrotation Xrotation
                          JOINT LeftHandPinkyEnd
                          {
                            OFFSET 1.952123 0.0 0.0
                            CHANNELS 3 Zrotation Yrotation Xrotation
                          }
                        }
                      }
                    }
                  }
                }
              }
            }
          }
          JOINT RightShoulder
          {
            OFFSET 23.161716 5.296122 -1.380114
            CHANNELS 3 Zrotation Yrotation Xrotation
            JOINT RightArm
            {
              OFFSET -16.027195 -2e-06 1.1e-05
              CHANNELS 3 Zrotation Yrotation Xrotation
              JOINT RightForeArm
              {
                OFFSET -28.736639 4e-06 2e-06
                CHANNELS 3 Zrotation Yrotation Xrotation
                JOINT RightHand
                {
                  OFFSET -27.133619 6e-06 0.0
                  CHANNELS 3 Zrotation Yrotation Xrotation
                  JOINT RightHandThumb1
                  {
                    OFFSET -2.274328 -3.351035 -0.83067
                    CHANNELS 3 Zrotation Yrotation Xrotation
                    JOINT RightHandThumb2
                    {
                      OFFSET -4.703594 -3e-06 2e-06
                      CHANNELS 3 Zrotation Yrotation Xrotation
                      JOINT RightHandThumb3
                      {
                        OFFSET -2.794935 -4e-06 -3e-06
                        CHANNELS 3 Zrotation Yrotation Xrotation
                        JOINT RightHandThumbEnd
                        {
                          OFFSET -3.183852 4e-06 1e-06
                          CHANNELS 3 Zrotation Yrotation Xrotation
                        }
                      }
                    }
                  }
                  JOINT RightHandIndex1
                  {
                    OFFSET -3.253496 -2.33755 -0.127667
                    CHANNELS 3 Zrotation Yrotation Xrotation
                    JOINT RightHandIndex2
                    {
                      OFFSET -6.344434 0.0 0.0
                      CHANNELS 3 Zrotation Yrotation Xrotation
                      JOINT RightHandIndex3
                      {
                        OFFSET -3.654871 0.0 -8e-06
                        CHANNELS 3 Zrotation Yrotation Xrotation
                        JOINT RightHandIndex4
                        {
                          OFFSET -2.327586 -1e-06 0.0
                          CHANNELS 3 Zrotation Yrotation Xrotation
                          JOINT RightHandIndexEnd
                          {
                            OFFSET -2.770001 3e-06 8e-06
                            CHANNELS 3 Zrotation Yrotation Xrotation
                          }
                        }
                      }
                    }
                  }
                  JOINT RightHandMiddle1
                  {
                    OFFSET -3.168223 -0.944764 0.411762
                    CHANNELS 3 Zrotation Yrotation Xrotation
                    JOINT RightHandMiddle2
                    {
                      OFFSET -6.266691 -1e-06 -4e-06
                      CHANNELS 3 Zrotation Yrotation Xrotation
                      JOINT RightHandMiddle3
                      {
                        OFFSET -4.348901 0.0 0.0
                        CHANNELS 3 Zrotation Yrotation Xrotation
                        JOINT RightHandMiddle4
                        {
                          OFFSET -3.00024 2e-06 -4e-06
                          CHANNELS 3 Zrotation Yrotation Xrotation
                          JOINT RightHandMiddleEnd
                          {
                            OFFSET -2.321477 -4e-06 -4e-06
                            CHANNELS 3 Zrotation Yrotation Xrotation
                          }
                        }
                      }
                    }
                  }
                  JOINT RightHandRing1
                  {
                    OFFSET -2.885654 0.293261 -0.119232
                    CHANNELS 3 Zrotation Yrotation Xrotation
                    JOINT RightHandRing2
                    {
                      OFFSET -6.032835 -1e-06 -4e-06
                      CHANNELS 3 Zrotation Yrotation Xrotation
                      JOINT RightHandRing3
                      {
                        OFFSET -4.33881 0.0 -4e-06
                        CHANNELS 3 Zrotation Yrotation Xrotation
                        JOINT RightHandRing4
                        {
                          OFFSET -2.654903 -4e-06 -4e-06
                          CHANNELS 3 Zrotation Yrotation Xrotation
                          JOINT RightHandRingEnd
                          {
                            OFFSET -1.935122 0.0 4e-06
                            CHANNELS 3 Zrotation Yrotation Xrotation
                          }
                        }
                      }
                    }
                  }
                  JOINT RightHandPinky1
                  {
                    OFFSET -2.866241 1.503904 -0.60527
                    CHANNELS 3 Zrotation Yrotation Xrotation
                    JOINT RightHandPinky2
                    {
                      OFFSET -5.553177 -2e-06 0.0
                      CHANNELS 3 Zrotation Yrotation Xrotation
                      JOINT RightHandPinky3
                      {
                        OFFSET -3.062664 -1e-06 -4e-06
                        CHANNELS 3 Zrotation Yrotation Xrotation
                        JOINT RightHandPinky4
                        {
                          OFFSET -1.546529 2e-06 4e-06
                          CHANNELS 3 Zrotation Yrotation Xrotation
                          JOINT RightHandPinkyEnd
                          {
                            OFFSET -1.952341 0.0 -4e-06
                            CHANNELS 3 Zrotation Yrotation Xrotation
                          }
                        }
                      }
                    }
                  }
                }
              }
            }
          }
        }
      }
    }
    JOINT LeftLeg
    {
      OFFSET -8.443107 2.567604 10.043214
      CHANNELS 3 Zrotation Yrotation Xrotation
      JOINT LeftShin
      {
        OFFSET 43.229198 1e-06 -1e-06
        CHANNELS 3 Zrotation Yrotation Xrotation
        JOINT LeftFoot
        {
          OFFSET 42.298611 1e-06 1e-06
          CHANNELS 3 Zrotation Yrotation Xrotation
          JOINT LeftToeBase
          {
            OFFSET 14.165858 1e-06 0.0
            CHANNELS 3 Zrotation Yrotation Xrotation
            JOINT LeftToeEnd
            {
              OFFSET 6.7141 -0.234461 0.0
              CHANNELS 3 Zrotation Yrotation Xrotation
            }
          }
        }
      }
    }
    JOINT RightLeg
    {
      OFFSET -8.303923 2.592729 -10.047278
      CHANNELS 3 Zrotation Yrotation Xrotation
      JOINT RightShin
      {
        OFFSET -43.369682 0.0 1e-06
        CHANNELS 3 Zrotation Yrotation Xrotation
        JOINT RightFoot
        {
          OFFSET -42.260784 4e-06 2e-06
          CHANNELS 3 Zrotation Yrotation Xrotation
          JOINT RightToeBase
          {
            OFFSET -14.222245 -2e-06 -1e-06
            CHANNELS 3 Zrotation Yrotation Xrotation
            JOINT RightToeEnd
            {
              OFFSET -6.660062 0.232574 -2e-06
              CHANNELS 3 Zrotation Yrotation Xrotation
            }
          }
        }
      }
    }
  }
}
MOTION
Frames: 4
Frame Time: 0.03333333333333333
0.0 0.0 0.0 0.0 -0.0 0.0 -11.493172 49.272518 121.424568 92.032967 -50.054794 88.575546 14.27881 -2.195611 0.883397 -4.668667 -0.646069 2.405229 25.523964 -5.298369 -0.578115 35.775879 -3.305439 1.904138 -2.784503 -0.324239 -1.221709 -24.543053 -5.18003 -2.843108 6e-06 2e-06 0.0 -0.255556 -0.052338 0.012223 -0.04278 -0.077659 0.077713 -0.04834 -0.025626 -0.051036 -15.16064 -73.975792 20.88719 87.529556 -9.692301 -32.150467 11.820682 -1.150744 -0.132531 85.138885 66.248672 86.641945 17.636627 -26.322729 52.411182 -19.46666 -14.395597 29.410385 -2e-06 -8.774819 -1e-06 15.454478 -18.416361 6.372003 -0.609776 -1.795653 -3.889328 -4.807088 -11.046811 -2.93785 3e-06 -20.976015 -0.0 -5.01997 -25.033554 -4.031879 6e-06 0.0 -1e-06 -10.634533 -5.686969 -3.565588 10.573272 -17.922947 -3.113899 2e-06 -13.821208 1e-06 -0.501778 -31.181501 -4.027016 -10.953357 -59.362103 7.622471 -13.982711 -7.150198 -2.875042 13.772726 -8.40149 -3.218241 0.347732 -34.21154 0.771655 -0.963029 -17.733366 2.621019 -0.0 1e-06 0.0 -17.346413 -20.095217 -4.201783 21.757555 -1.638375 3.866428 1e-06 -6.338822 0.0 -1.697589 -22.591745 -6.194006 -0.0 -7e-06 -2e-06 179.554657 -53.764847 0.737414 75.654343 -9.217618 -59.749538 13.937152 -0.844641 -0.171777 49.30246 54.776028 50.479813 22.182108 -20.375895 49.933319 -16.701809 -16.743528 28.47653 -2e-06 -12.690598 -0.0 15.720528 -17.260929 2.740939 -0.105919 -1.513856 -4.275882 -5.039041 -5.612869 -2.953556 4e-06 -11.020524 -2e-06 -6.111297 -15.895324 -3.840471 0.0 1e-06 0.0 -10.283369 -5.680288 -4.341838 11.028293 -11.302402 -2.372633 -1.384268 -14.238577 -6.320121 -0.625438 -26.924183 -3.827601 -3.627668 -50.019196 -4.300433 -13.708523 -7.363474 -3.720939 18.141146 -14.052738 -3.242676 6e-06 -18.787266 -1e-06 -0.429711 -8.456043 2.555503 -1e-06 -0.0 -0.0 -15.923534 -20.094482 -5.473585 30.41921 -7.190826 1.735923 3e-06 -8.162921 0.0 -1.861902 -22.861469 -6.167941 -0.0 -2e-06 -1e-06 101.802902 -4.057988 9.494779 128.245728 0.909684 0.595825 -45.775162 15.351295 -0.779061 -7.905209 1.354073 2.323851 -0.999999 0.0 -0.0 -33.445335 3.065241 7.88958 85.026581 1.063468 -0.623418 -42.838394 21.45454 -3.169417 -9.616675 0.481155 1.378607 -1.000004 -0.0 1e-06 
0.0 0.0 0.0 0.0 -0.0 0.0 -11.202494 48.962143 123.402237 92.39254 -49.902843 86.553162 13.979833 -2.39688 1.056625 -4.849651 -0.454581 2.518493 25.416742 -5.62952 -0.132485 36.140522 -3.851439 1.549159 -2.75422 -0.236412 -0.937071 -25.017365 -5.399468 -2.321193 6e-06 1e-06 0.0 -0.239208 -0.072347 0.014265 -0.023811 -0.122819 0.097182 0.008389 -0.024924 -0.06659 -16.703625 -74.907295 22.871311 86.88842 -11.589887 -31.734388 12.387507 -1.286147 -0.147816 86.484329 66.307747 88.740028 17.636625 -26.322723 52.411182 -19.466654 -14.395592 29.410381 0.0 -8.774817 -2e-06 15.40464 -18.289059 6.333284 -0.609776 -1.795654 -3.889326 -4.807088 -11.046811 -2.93785 4e-06 -20.976011 -1e-06 -5.019968 -25.033548 -4.031882 6e-06 -0.0 1e-06 -10.634533 -5.686971 -3.565588 10.573271 -17.922947 -3.113899 3e-06 -13.821206 0.0 -0.501777 -31.181505 -4.027017 -10.826945 -59.329475 7.234612 -13.982712 -7.150197 -2.875041 13.772726 -8.401491 -3.218241 0.347733 -34.211544 0.771653 -0.963028 -17.73337 2.621018 0.0 0.0 0.0 -17.346413 -20.095215 -4.20178 21.757553 -1.638376 3.866428 1e-06 -6.338824 0.0 -1.697589 -22.591742 -6.194006 -1e-06 -6e-06 -2e-06 179.475906 -53.155338 0.70652 77.704308 -9.785605 -59.608585 13.648909 -0.681707 -0.150109 49.912235 55.313591 50.924484 22.182108 -20.375891 49.933319 -16.701811 -16.743525 28.476528 -2e-06 -12.690597 -0.0 15.59637 -17.311588 2.806079 -0.105919 -1.513856 -4.275881 -5.03904 -5.612869 -2.953556 4e-06 -11.020526 -3e-06 -6.111297 -15.89533 -3.84047 -0.0 -1e-06 1e-06 -10.283368 -5.680286 -4.341839 11.028292 -11.302406 -2.372633 -1.384268 -14.238579 -6.320121 -0.625438 -26.924185 -3.827601 -3.668099 -50.164814 -4.019911 -13.70852 -7.363476 -3.720939 18.141146 -14.052734 -3.242674 5e-06 -18.787266 -2e-06 -0.429711 -8.456039 2.555503 0.0 1e-06 -0.0 -15.923528 -20.094479 -5.473585 30.419205 -7.190823 1.735924 3e-06 -8.162921 1e-06 -1.861903 -22.861465 -6.167941 -1e-06 -2e-06 -1e-06 101.207405 -4.167302 9.296936 128.984131 1.038178 0.633165 -45.266045 16.972666 0.422609 -8.550096 1.386236 2.208895 -0.999996 0.0 -0.0 -30.917015 2.969613 8.700978 82.238556 0.624382 -0.683465 -42.686134 21.331789 -3.216116 -8.187152 0.448367 1.408688 -1.000004 -1e-06 1e-06 
0.0 0.0 0.0 0.0 -0.0 0.0 -10.87881 48.402889 125.436577 92.558792 -49.927303 85.401871 13.76298 -2.322038 0.945417 -5.026998 -0.611206 2.696644 25.095167 -5.450906 -0.018247 36.263935 -4.394812 1.320421 -2.76522 -0.277104 -0.755003 -25.34775 -5.345734 -1.878038 6e-06 0.0 -0.0 -0.260044 -0.137942 0.008011 -0.089245 -0.204229 0.097401 -0.055279 -0.074988 -0.080441 -17.687132 -75.65403 24.000017 86.106148 -14.106791 -31.730043 12.829499 -1.148946 -0.182834 87.79055 66.130447 90.289955 17.636631 -26.32272 52.411179 -19.466652 -14.395594 29.410378 -0.0 -8.77482 -3e-06 15.593611 -18.303017 6.340181 -0.609777 -1.795653 -3.889327 -4.807087 -11.046809 -2.93785 5e-06 -20.976011 -1e-06 -5.019969 -25.033548 -4.031882 6e-06 -0.0 1e-06 -10.634533 -5.686969 -3.565587 10.573274 -17.922945 -3.1139 3e-06 -13.821202 0.0 -0.501776 -31.181498 -4.027016 -10.936378 -59.585575 7.400127 -13.982712 -7.150196 -2.875042 13.772725 -8.40149 -3.218239 0.347733 -34.21154 0.771655 -0.963028 -17.733366 2.62102 0.0 1e-06 -0.0 -17.346416 -20.095213 -4.201782 21.757555 -1.638376 3.86643 2e-06 -6.338822 1e-06 -1.69759 -22.591742 -6.194006 -0.0 -8e-06 -2e-06 179.184006 -52.605255 0.462151 80.100815 -10.813793 -59.034492 13.274708 -0.414137 -0.083959 51.246029 56.576347 52.253067 22.182117 -20.375891 49.933308 -16.701809 -16.743528 28.476524 -3e-06 -12.690598 -1e-06 15.65853 -17.426994 2.850282 -0.10592 -1.513855 -4.275881 -5.039041 -5.612869 -2.953556 5e-06 -11.020523 -2e-06 -6.111296 -15.895328 -3.840471 -0.0 -1e-06 0.0 -10.283369 -5.680286 -4.341839 11.028292 -11.302402 -2.372632 -1.384268 -14.238577 -6.32012 -0.625439 -26.924183 -3.8276 -3.772786 -50.273808 -4.096682 -13.708524 -7.363472 -3.720939 18.141148 -14.052737 -3.242672 6e-06 -18.787266 -1e-06 -0.429711 -8.45604 2.555503 -0.0 -1e-06 0.0 -15.923532 -20.094475 -5.473585 30.419207 -7.190826 1.735926 4e-06 -8.162921 2e-06 -1.861902 -22.861464 -6.167941 -1e-06 -2e-06 -1e-06 101.551674 -3.996831 9.01175 129.217911 1.132565 0.685758 -45.964184 17.806332 0.531472 -8.159637 1.33995 2.220161 -1.000001 0.0 0.0 -28.47397 2.496567 9.15335 78.84404 0.438475 -0.672959 -39.553776 21.822989 -2.128754 -9.120209 0.48633 1.388315 -1.000004 0.0 0.0 
0.0 0.0 0.0 0.0 -0.0 0.0 -10.648801 48.052742 127.491035 93.20182 -50.285286 84.561623 13.465085 -2.281899 0.917768 -5.226343 -0.674875 2.649073 24.714153 -5.34974 -0.147463 36.123905 -4.304316 1.098093 -2.826139 -0.193675 -0.653247 -25.325632 -5.682912 -1.550325 6e-06 -1e-06 -0.0 -0.267285 -0.194785 0.003382 -0.173523 -0.250771 0.078563 -0.15469 -0.140032 -0.07265 -16.707285 -76.509933 23.072535 85.267265 -16.604078 -32.155212 13.195823 -1.002266 -0.156148 87.76532 65.792908 89.687119 17.636633 -26.322735 52.411198 -19.466658 -14.395597 29.410393 0.0 -8.774822 -2e-06 15.763457 -18.269054 6.156614 -0.609777 -1.795653 -3.889328 -4.80709 -11.046813 -2.93785 3e-06 -20.976015 0.0 -5.019971 -25.03356 -4.03188 6e-06 -0.0 -0.0 -10.634535 -5.686974 -3.565588 10.573272 -17.922949 -3.113899 3e-06 -13.821205 1e-06 -0.501779 -31.181505 -4.027015 -10.953341 -59.635086 7.305238 -13.982716 -7.150198 -2.875043 13.772731 -8.401491 -3.21824 0.347731 -34.211544 0.771657 -0.963029 -17.733366 2.621021 -0.0 -1e-06 0.0 -17.346422 -20.095217 -4.201783 21.757561 -1.638376 3.86643 1e-06 -6.338823 1e-06 -1.697591 -22.591745 -6.194006 -0.0 -6e-06 -1e-06 178.21521 -52.290005 1.085894 82.744919 -11.793775 -59.420666 12.894987 -0.346154 -0.031142 53.830761 57.289406 54.572262 22.182106 -20.375893 49.933319 -16.701811 -16.743528 28.476528 -2e-06 -12.6906 1e-06 15.544194 -17.37422 2.908299 -0.105919 -1.513857 -4.275881 -5.03904 -5.61287 -2.953557 4e-06 -11.020525 -2e-06 -6.111298 -15.89533 -3.84047 0.0 2e-06 0.0 -10.283369 -5.680288 -4.341838 11.028294 -11.302402 -2.372633 -1.384268 -14.238577 -6.320121 -0.625439 -26.924183 -3.827601 -3.890465 -50.194641 -3.981677 -13.708522 -7.363477 -3.720939 18.141148 -14.052739 -3.242675 5e-06 -18.78727 -2e-06 -0.429711 -8.456042 2.555504 -0.0 -0.0 0.0 -15.923532 -20.094482 -5.473583 30.419205 -7.190823 1.735924 2e-06 -8.162922 1e-06 -1.861903 -22.861464 -6.16794 -1e-06 -3e-06 -1e-06 102.475235 -3.368084 8.485139 128.723709 1.20526 0.685346 -47.167496 17.960281 -0.106456 -8.464644 1.330149 2.212596 -1.0 0.0 0.0 -26.328312 1.561007 9.150949 75.350037 0.150176 -0.712716 -37.40686 22.108818 -1.375529 -8.897877 0.509502 1.387568 -1.000003 0.0 1e-06 
